<mxfile host="app.diagrams.net" modified="2022-12-10T00:06:26.380Z" agent="5.0 (Windows NT 10.0; Win64; x64) AppleWebKit/537.36 (KHTML, like Gecko) Chrome/107.0.0.0 Safari/537.36 OPR/93.0.0.0" etag="OIZXzg0sDcHU1KcK8_-j" version="20.6.2" type="github">
  <diagram id="C5RBs43oDa-KdzZeNtuy" name="Page-1">
    <mxGraphModel dx="566" dy="1481" grid="1" gridSize="10" guides="1" tooltips="1" connect="0" arrows="0" fold="1" page="1" pageScale="1" pageWidth="827" pageHeight="1169" math="0" shadow="0">
      <root>
        <mxCell id="WIyWlLk6GJQsqaUBKTNV-0" />
        <mxCell id="WIyWlLk6GJQsqaUBKTNV-1" parent="WIyWlLk6GJQsqaUBKTNV-0" />
        <mxCell id="r_Y-1Pc6A0Ecmu2OVbc_-3" value="Pesquisa de salas vagas" style="rounded=1;whiteSpace=wrap;html=1;strokeWidth=2;fillStyle=solid;sketch=0;shadow=0;glass=0;" vertex="1" parent="WIyWlLk6GJQsqaUBKTNV-1">
          <mxGeometry x="260" y="-400" width="120" height="40" as="geometry" />
        </mxCell>
        <mxCell id="r_Y-1Pc6A0Ecmu2OVbc_-11" value="Início&#xa;&#xa;&#xa;" style="shape=waypoint;sketch=0;fillStyle=solid;size=6;pointerEvents=1;points=[];fillColor=none;resizable=0;rotatable=0;perimeter=centerPerimeter;snapToPoint=1;rounded=1;shadow=0;glass=0;strokeColor=#000000;strokeWidth=9;fontSize=13;" vertex="1" parent="WIyWlLk6GJQsqaUBKTNV-1">
          <mxGeometry x="300" y="-604" width="40" height="40" as="geometry" />
        </mxCell>
        <mxCell id="r_Y-1Pc6A0Ecmu2OVbc_-12" value="Reserva de Sala concluída" style="rounded=1;whiteSpace=wrap;html=1;shadow=0;glass=0;sketch=0;fillStyle=solid;strokeWidth=2;fontSize=13;strokeColor=#FFFFFF;" vertex="1" parent="WIyWlLk6GJQsqaUBKTNV-1">
          <mxGeometry x="200" y="-110" width="240" height="50" as="geometry" />
        </mxCell>
        <mxCell id="r_Y-1Pc6A0Ecmu2OVbc_-32" value="" style="endArrow=classic;html=1;rounded=0;startArrow=none;entryX=0.5;entryY=-0.033;entryDx=0;entryDy=0;entryPerimeter=0;" edge="1" parent="WIyWlLk6GJQsqaUBKTNV-1" source="r_Y-1Pc6A0Ecmu2OVbc_-39" target="r_Y-1Pc6A0Ecmu2OVbc_-31">
          <mxGeometry width="50" height="50" relative="1" as="geometry">
            <mxPoint x="319.66" y="-350" as="sourcePoint" />
            <mxPoint x="320.16" y="-250" as="targetPoint" />
            <Array as="points" />
          </mxGeometry>
        </mxCell>
        <mxCell id="r_Y-1Pc6A0Ecmu2OVbc_-31" value="Agenda Horário" style="rounded=1;whiteSpace=wrap;html=1;strokeWidth=2;fillStyle=solid;sketch=0;shadow=0;glass=0;" vertex="1" parent="WIyWlLk6GJQsqaUBKTNV-1">
          <mxGeometry x="260" y="-240" width="120" height="40" as="geometry" />
        </mxCell>
        <mxCell id="r_Y-1Pc6A0Ecmu2OVbc_-37" value="" style="endArrow=classic;html=1;rounded=0;" edge="1" parent="WIyWlLk6GJQsqaUBKTNV-1">
          <mxGeometry width="50" height="50" relative="1" as="geometry">
            <mxPoint x="320" y="-200" as="sourcePoint" />
            <mxPoint x="320.1600000000001" y="-110" as="targetPoint" />
            <Array as="points" />
          </mxGeometry>
        </mxCell>
        <mxCell id="r_Y-1Pc6A0Ecmu2OVbc_-38" value="Sala Disponível" style="text;html=1;align=center;verticalAlign=middle;resizable=0;points=[];autosize=1;strokeColor=none;fillColor=none;fontSize=13;" vertex="1" parent="WIyWlLk6GJQsqaUBKTNV-1">
          <mxGeometry x="320" y="-290" width="110" height="30" as="geometry" />
        </mxCell>
        <mxCell id="r_Y-1Pc6A0Ecmu2OVbc_-39" value="" style="strokeWidth=2;html=1;shape=mxgraph.flowchart.decision;whiteSpace=wrap;rounded=1;shadow=0;glass=0;sketch=0;fillStyle=solid;strokeColor=default;fontSize=13;fillColor=default;" vertex="1" parent="WIyWlLk6GJQsqaUBKTNV-1">
          <mxGeometry x="307.5" y="-310" width="25" height="20" as="geometry" />
        </mxCell>
        <mxCell id="r_Y-1Pc6A0Ecmu2OVbc_-41" value="" style="endArrow=classic;html=1;rounded=0;fontFamily=Helvetica;fontSize=13;fontColor=none;exitX=-0.009;exitY=0.486;exitDx=0;exitDy=0;exitPerimeter=0;jumpSize=3;" edge="1" parent="WIyWlLk6GJQsqaUBKTNV-1" source="r_Y-1Pc6A0Ecmu2OVbc_-39">
          <mxGeometry width="50" height="50" relative="1" as="geometry">
            <mxPoint x="320" y="-260" as="sourcePoint" />
            <mxPoint x="200" y="-300" as="targetPoint" />
          </mxGeometry>
        </mxCell>
        <mxCell id="r_Y-1Pc6A0Ecmu2OVbc_-43" value="Sala Indisponível" style="text;html=1;align=center;verticalAlign=middle;resizable=0;points=[];autosize=1;strokeColor=none;fillColor=none;fontSize=13;" vertex="1" parent="WIyWlLk6GJQsqaUBKTNV-1">
          <mxGeometry x="200" y="-340" width="120" height="30" as="geometry" />
        </mxCell>
        <mxCell id="r_Y-1Pc6A0Ecmu2OVbc_-44" value="&lt;font color=&quot;#ffffff&quot;&gt;Alterar Horário&amp;nbsp;&lt;/font&gt;" style="whiteSpace=wrap;html=1;rounded=1;shadow=0;glass=0;sketch=0;fillStyle=solid;strokeColor=default;strokeWidth=2;fontFamily=Helvetica;fontSize=13;fontColor=none;fillColor=default;" vertex="1" parent="WIyWlLk6GJQsqaUBKTNV-1">
          <mxGeometry x="90" y="-320" width="110" height="40" as="geometry" />
        </mxCell>
        <mxCell id="r_Y-1Pc6A0Ecmu2OVbc_-46" value="" style="endArrow=classic;html=1;rounded=0;exitX=0.5;exitY=0.969;exitDx=0;exitDy=0;exitPerimeter=0;" edge="1" parent="WIyWlLk6GJQsqaUBKTNV-1" source="r_Y-1Pc6A0Ecmu2OVbc_-50">
          <mxGeometry width="50" height="50" relative="1" as="geometry">
            <mxPoint x="319.58" y="-490" as="sourcePoint" />
            <mxPoint x="319.73999999999995" y="-400" as="targetPoint" />
            <Array as="points" />
          </mxGeometry>
        </mxCell>
        <mxCell id="r_Y-1Pc6A0Ecmu2OVbc_-47" value="Funcionário" style="swimlane;fontStyle=1;align=center;verticalAlign=top;childLayout=stackLayout;horizontal=1;startSize=26;horizontalStack=0;resizeParent=1;resizeParentMax=0;resizeLast=0;collapsible=1;marginBottom=0;rounded=1;shadow=0;glass=0;sketch=0;fillStyle=solid;strokeColor=default;strokeWidth=2;fontFamily=Helvetica;fontSize=13;fontColor=#FFFFFF;fillColor=none;html=1;" vertex="1" parent="WIyWlLk6GJQsqaUBKTNV-1">
          <mxGeometry x="200" y="-564" width="240" height="86" as="geometry">
            <mxRectangle x="200" y="-564" width="110" height="30" as="alternateBounds" />
          </mxGeometry>
        </mxCell>
        <mxCell id="r_Y-1Pc6A0Ecmu2OVbc_-48" value="Nome: Otniel de Souza" style="text;strokeColor=none;fillColor=none;align=left;verticalAlign=top;spacingLeft=4;spacingRight=4;overflow=hidden;rotatable=0;points=[[0,0.5],[1,0.5]];portConstraint=eastwest;rounded=1;shadow=0;glass=0;sketch=0;fillStyle=solid;strokeWidth=2;fontFamily=Helvetica;fontSize=13;fontColor=#FFFFFF;html=1;" vertex="1" parent="r_Y-1Pc6A0Ecmu2OVbc_-47">
          <mxGeometry y="26" width="240" height="26" as="geometry" />
        </mxCell>
        <mxCell id="r_Y-1Pc6A0Ecmu2OVbc_-49" value="" style="line;strokeWidth=1;fillColor=none;align=left;verticalAlign=middle;spacingTop=-1;spacingLeft=3;spacingRight=3;rotatable=0;labelPosition=right;points=[];portConstraint=eastwest;strokeColor=inherit;rounded=1;shadow=0;glass=0;sketch=0;fillStyle=solid;fontFamily=Helvetica;fontSize=13;fontColor=#FFFFFF;html=1;" vertex="1" parent="r_Y-1Pc6A0Ecmu2OVbc_-47">
          <mxGeometry y="52" width="240" height="8" as="geometry" />
        </mxCell>
        <mxCell id="r_Y-1Pc6A0Ecmu2OVbc_-50" value="Setor: Tecnologia da Informação" style="text;strokeColor=none;fillColor=none;align=left;verticalAlign=top;spacingLeft=4;spacingRight=4;overflow=hidden;rotatable=0;points=[[0,0.5],[1,0.5]];portConstraint=eastwest;rounded=1;shadow=0;glass=0;sketch=0;fillStyle=solid;strokeWidth=2;fontFamily=Helvetica;fontSize=13;fontColor=#FFFFFF;html=1;" vertex="1" parent="r_Y-1Pc6A0Ecmu2OVbc_-47">
          <mxGeometry y="60" width="240" height="26" as="geometry" />
        </mxCell>
        <mxCell id="r_Y-1Pc6A0Ecmu2OVbc_-52" value="" style="endArrow=none;html=1;rounded=0;fontFamily=Helvetica;fontSize=13;fontColor=#FFFFFF;jumpSize=3;entryX=0.504;entryY=1.019;entryDx=0;entryDy=0;entryPerimeter=0;" edge="1" parent="WIyWlLk6GJQsqaUBKTNV-1" target="r_Y-1Pc6A0Ecmu2OVbc_-3">
          <mxGeometry width="50" height="50" relative="1" as="geometry">
            <mxPoint x="320" y="-310" as="sourcePoint" />
            <mxPoint x="340" y="-400" as="targetPoint" />
          </mxGeometry>
        </mxCell>
        <mxCell id="r_Y-1Pc6A0Ecmu2OVbc_-56" value="" style="edgeStyle=segmentEdgeStyle;endArrow=classic;html=1;rounded=0;fontFamily=Helvetica;fontSize=13;fontColor=#FFFFFF;jumpSize=3;entryX=-0.006;entryY=0.433;entryDx=0;entryDy=0;entryPerimeter=0;exitX=0.458;exitY=0.01;exitDx=0;exitDy=0;exitPerimeter=0;" edge="1" parent="WIyWlLk6GJQsqaUBKTNV-1" source="r_Y-1Pc6A0Ecmu2OVbc_-44" target="r_Y-1Pc6A0Ecmu2OVbc_-3">
          <mxGeometry width="50" height="50" relative="1" as="geometry">
            <mxPoint x="140" y="-322" as="sourcePoint" />
            <mxPoint x="240" y="-380" as="targetPoint" />
            <Array as="points">
              <mxPoint x="140" y="-322" />
              <mxPoint x="140" y="-322" />
              <mxPoint x="140" y="-383" />
            </Array>
          </mxGeometry>
        </mxCell>
        <mxCell id="r_Y-1Pc6A0Ecmu2OVbc_-57" value="Fim&lt;br&gt;&lt;br&gt;&lt;br&gt;" style="shape=waypoint;sketch=0;size=6;pointerEvents=1;points=[];fillColor=none;resizable=0;rotatable=0;perimeter=centerPerimeter;snapToPoint=1;rounded=1;shadow=0;glass=0;fillStyle=solid;strokeColor=#000000;strokeWidth=7;fontFamily=Helvetica;fontSize=13;fontColor=#FFFFFF;html=1;" vertex="1" parent="WIyWlLk6GJQsqaUBKTNV-1">
          <mxGeometry x="300" y="-40" width="40" height="40" as="geometry" />
        </mxCell>
      </root>
    </mxGraphModel>
  </diagram>
</mxfile>
